<?xml version="1.0" encoding="UTF-8" standalone="no"?>
<!-- Created with Inkscape (http://www.inkscape.org/) -->

<svg
   width="210mm"
   height="297mm"
   viewBox="0 0 210 297"
   version="1.1"
   id="svg5"
   xml:space="preserve"
   inkscape:version="1.2.2 (b0a8486541, 2022-12-01)"
   sodipodi:docname="logo2.svg"
   xmlns:inkscape="http://www.inkscape.org/namespaces/inkscape"
   xmlns:sodipodi="http://sodipodi.sourceforge.net/DTD/sodipodi-0.dtd"
   xmlns:xlink="http://www.w3.org/1999/xlink"
   xmlns="http://www.w3.org/2000/svg"
   xmlns:svg="http://www.w3.org/2000/svg"><sodipodi:namedview
     id="namedview7"
     pagecolor="#ffffff"
     bordercolor="#000000"
     borderopacity="0.25"
     inkscape:showpageshadow="2"
     inkscape:pageopacity="0.0"
     inkscape:pagecheckerboard="0"
     inkscape:deskcolor="#d1d1d1"
     inkscape:document-units="mm"
     showgrid="false"
     inkscape:zoom="1.0973349"
     inkscape:cx="174.96938"
     inkscape:cy="515.33949"
     inkscape:window-width="1908"
     inkscape:window-height="1044"
     inkscape:window-x="0"
     inkscape:window-y="0"
     inkscape:window-maximized="1"
     inkscape:current-layer="g861" /><defs
     id="defs2"><linearGradient
       inkscape:collect="always"
       id="linearGradient2634"><stop
         style="stop-color:#bdbdbd;stop-opacity:1;"
         offset="0"
         id="stop2630" /><stop
         style="stop-color:#181818;stop-opacity:0;"
         offset="1"
         id="stop2632" /></linearGradient><linearGradient
       inkscape:collect="always"
       xlink:href="#linearGradient2634"
       id="linearGradient2636"
       x1="64.576302"
       y1="28.016371"
       x2="181.15703"
       y2="188.56282"
       gradientUnits="userSpaceOnUse" /></defs><g
     inkscape:label="Layer 1"
     inkscape:groupmode="layer"
     id="layer1"><g
       fill="currentColor"
       id="g861"
       transform="matrix(3.7156153,0,0,3.6144099,65.670059,55.075735)"><ellipse
         style="fill:url(#linearGradient2636);fill-opacity:1;stroke:#080707;stroke-width:4.99999995;stroke-dasharray:none;stroke-opacity:1"
         id="path2627"
         cx="121.81744"
         cy="108.04519"
         rx="74.921616"
         ry="69.0242"
         transform="matrix(0.26913443,0,0,0.27667034,-17.674074,-15.237822)" /><path
         fill-rule="evenodd"
         d="M 21.999109,5.7790906 H 6.9991086 a 2.5,2.5 0 0 0 -2.5,2.5 V 18.279091 a 2.5,2.5 0 0 0 2.5,2.5 H 21.999109 a 2.5,2.5 0 0 0 2.5,-2.5 V 8.2790906 a 2.5,2.5 0 0 0 -2.5,-2.5 z m -15.5000004,2.5 a 0.5,0.5 0 0 1 0.5,-0.5 H 21.999109 a 0.5,0.5 0 0 1 0.5,0.5 V 18.279091 a 0.5,0.5 0 0 1 -0.5,0.5 H 6.9991086 a 0.5,0.5 0 0 1 -0.5,-0.5 z"
         clip-rule="evenodd"
         id="path855" /><path
         fill-rule="evenodd"
         d="m 15.999109,19.279091 h -3 a 1,1 0 0 0 -1,1 v 2.5 a 1,1 0 0 0 1,1 h 3 a 1,1 0 0 0 1,-1 v -2.5 a 1,1 0 0 0 -1,-1 z m -2.5,3 v -1.5 h 2 v 1.5 z"
         clip-rule="evenodd"
         id="path857" /><path
         d="m 9.9991086,24.279091 a 1,1 0 1 1 0,-2 h 9.0000004 a 1,1 0 1 1 0,2 z m -2,-15.5000004 H 20.999109 a 0.5,0.5 0 0 1 0.5,0.5 v 8.0000004 a 0.5,0.5 0 0 1 -0.5,0.5 H 7.9991086 a 0.5,0.5 0 0 1 -0.5,-0.5 V 9.2790906 a 0.5,0.5 0 0 1 0.5,-0.5 z"
         id="path859" /></g></g></svg>
