<?xml version="1.0" encoding="UTF-8" standalone="no"?>
<!-- Created with Inkscape (http://www.inkscape.org/) -->

<svg
   width="210mm"
   height="297mm"
   viewBox="0 0 210 297"
   version="1.1"
   id="svg5"
   xml:space="preserve"
   inkscape:version="1.2.2 (b0a8486541, 2022-12-01)"
   sodipodi:docname="logo.svg"
   xmlns:inkscape="http://www.inkscape.org/namespaces/inkscape"
   xmlns:sodipodi="http://sodipodi.sourceforge.net/DTD/sodipodi-0.dtd"
   xmlns:xlink="http://www.w3.org/1999/xlink"
   xmlns="http://www.w3.org/2000/svg"
   xmlns:svg="http://www.w3.org/2000/svg"><sodipodi:namedview
     id="namedview7"
     pagecolor="#ffffff"
     bordercolor="#000000"
     borderopacity="0.25"
     inkscape:showpageshadow="2"
     inkscape:pageopacity="0.0"
     inkscape:pagecheckerboard="0"
     inkscape:deskcolor="#d1d1d1"
     inkscape:document-units="mm"
     showgrid="false"
     inkscape:zoom="1.0973349"
     inkscape:cx="190.00581"
     inkscape:cy="584.5982"
     inkscape:window-width="1908"
     inkscape:window-height="1044"
     inkscape:window-x="0"
     inkscape:window-y="0"
     inkscape:window-maximized="1"
     inkscape:current-layer="layer1" /><defs
     id="defs2"><linearGradient
       inkscape:collect="always"
       id="linearGradient1582"><stop
         style="stop-color:#000000;stop-opacity:1"
         offset="0"
         id="stop1578" /><stop
         style="stop-color:#7f7f7f;stop-opacity:0;"
         offset="1"
         id="stop1580" /></linearGradient><linearGradient
       inkscape:collect="always"
       xlink:href="#linearGradient1582"
       id="linearGradient1584"
       x1="39.37738"
       y1="57.786709"
       x2="150.92421"
       y2="250.57509"
       gradientUnits="userSpaceOnUse"
       gradientTransform="translate(0.96968284,-2.5547413)" /></defs><g
     inkscape:label="Layer 1"
     inkscape:groupmode="layer"
     id="layer1"><g
       fill="currentColor"
       id="g861"
       transform="matrix(3.7156153,0,0,3.6144099,113.30053,4.1478357)"><path
         fill-rule="evenodd"
         d="M 17.5,1 H 2.5 A 2.5,2.5 0 0 0 0,3.5 v 10 A 2.5,2.5 0 0 0 2.5,16 h 15 A 2.5,2.5 0 0 0 20,13.5 V 3.5 A 2.5,2.5 0 0 0 17.5,1 Z M 2,3.5 A 0.5,0.5 0 0 1 2.5,3 h 15 A 0.5,0.5 0 0 1 18,3.5 v 10 A 0.5,0.5 0 0 1 17.5,14 H 2.5 A 0.5,0.5 0 0 1 2,13.5 Z"
         clip-rule="evenodd"
         id="path855" /><path
         fill-rule="evenodd"
         d="m 11.5,14.5 h -3 a 1,1 0 0 0 -1,1 V 18 a 1,1 0 0 0 1,1 h 3 a 1,1 0 0 0 1,-1 v -2.5 a 1,1 0 0 0 -1,-1 z M 9,17.5 V 16 h 2 v 1.5 z"
         clip-rule="evenodd"
         id="path857" /><path
         d="m 5.5,19.5 a 1,1 0 1 1 0,-2 h 9 a 1,1 0 1 1 0,2 z M 3.5,4 h 13 A 0.5,0.5 0 0 1 17,4.5 v 8 A 0.5,0.5 0 0 1 16.5,13 H 3.5 A 0.5,0.5 0 0 1 3,12.5 v -8 A 0.5,0.5 0 0 1 3.5,4 Z"
         id="path859" /></g><g
       id="g2521"
       transform="translate(-1.5587675,3.7645882)"><g
         id="g2514"><path
           id="path751"
           style="fill:url(#linearGradient1584);stroke:#000000;stroke-width:5.165"
           d="M 173.39872,163.56802 A 73.119148,76.337875 0 0 1 100.27957,239.9059 73.119148,76.337875 0 0 1 27.160423,163.56802 73.119148,76.337875 0 0 1 100.27957,87.230148 73.119148,76.337875 0 0 1 173.39872,163.56802 Z" /></g><g
         id="g2511"><path
           fill="currentColor"
           d="m 67.587078,118.39935 c -5.922985,0 -10.672022,3.90581 -10.672022,8.77713 v 35.10812 c 0,4.87131 4.749037,8.77711 10.672022,8.77711 h 64.031732 c 5.923,0 10.67204,-3.9058 10.67204,-8.77711 v -35.10812 c 0,-4.87132 -4.74904,-8.77713 -10.67204,-8.77713 H 67.587078 m 0,8.77713 H 131.61881 V 162.2846 H 67.587078 v -35.10812 m -10.672022,48.2737 c -5.922785,0 -10.671821,3.90583 -10.671821,8.77712 v 13.16558 c 0,4.87133 4.749036,8.77713 10.671821,8.77713 h 85.375794 c 5.92276,0 10.6718,-3.9058 10.6718,-8.77713 V 184.2273 c 0,-4.87129 -4.74904,-8.77712 -10.6718,-8.77712 H 56.915056 m 21.344045,8.77712 h 64.031749 v 13.16558 H 78.259101 V 184.2273 m 5.335911,3.29145 v 6.58271 h 21.343848 v -6.58271 H 83.595012 m 32.015858,0 v 6.58271 h 21.34387 v -6.58271 z"
           id="path592"
           style="stroke-width:4.83913"
           inkscape:label="path592" /></g><rect
         style="fill:#d9d9d9;fill-opacity:1;stroke:#eae8e8;stroke-width:0;stroke-dasharray:none;stroke-opacity:1"
         id="rect2039"
         width="64.391991"
         height="35.678467"
         x="66.794899"
         y="127.01113" /></g></g></svg>
