<?xml version="1.0" standalone="no"?>
<!DOCTYPE svg PUBLIC "-//W3C//DTD SVG 20010904//EN"
 "http://www.w3.org/TR/2001/REC-SVG-20010904/DTD/svg10.dtd">
<svg version="1.0" xmlns="http://www.w3.org/2000/svg"
 width="700.000000pt" height="700.000000pt" viewBox="0 0 700.000000 700.000000"
 preserveAspectRatio="xMidYMid meet">
<metadata>
Created by potrace 1.14, written by Peter Selinger 2001-2017
</metadata>
<g transform="translate(0.000000,700.000000) scale(0.100000,-0.100000)"
fill="#000000" stroke="none">
<path d="M1947 5543 c-1 -1 -31 -2 -67 -4 -117 -4 -223 -52 -302 -137 -55 -58
-74 -94 -121 -227 -43 -118 -181 -516 -207 -595 -23 -66 -124 -357 -254 -730
-53 -152 -102 -307 -109 -345 -10 -55 -13 -312 -12 -1165 1 -1212 -2 -1147 66
-1255 107 -170 304 -246 495 -190 74 21 124 51 184 109 90 87 130 197 130 357
l0 96 1750 0 1750 0 0 -96 c0 -114 19 -196 62 -267 49 -82 98 -128 175 -168
245 -124 527 -6 619 259 16 46 18 130 19 1150 0 605 -3 1123 -7 1150 -9 58
-31 127 -123 390 -81 231 -154 441 -165 475 -4 14 -40 117 -80 230 -39 113
-96 277 -127 365 -30 88 -68 197 -83 242 -16 46 -41 105 -55 132 -27 50 -120
151 -138 151 -6 0 -18 6 -26 13 -23 19 -99 46 -151 53 -37 5 -3218 12 -3223 7z
m3013 -447 c76 -18 153 -75 188 -140 22 -42 390 -1149 385 -1158 -4 -7 -4073
-12 -4073 -5 0 14 376 1130 390 1157 36 70 123 135 200 148 58 10 2866 7 2910
-2z m-2917 -1914 c217 -77 336 -317 268 -541 -66 -217 -291 -346 -514 -294
-296 68 -430 406 -265 664 105 164 323 237 511 171z m3141 17 c199 -36 348
-208 355 -410 13 -374 -408 -588 -708 -360 -55 41 -119 136 -141 209 -76 245
69 501 315 557 68 16 109 17 179 4z"/>
</g>
</svg>
