<?xml version="1.0" encoding="UTF-8" standalone="no"?>
<!-- Created with Inkscape (http://www.inkscape.org/) -->

<svg
   width="47.34996"
   height="47.391949"
   viewBox="0 0 12.528011 12.53912"
   version="1.1"
   id="svg5"
   xml:space="preserve"
   inkscape:version="1.2.2 (b0a8486541, 2022-12-01)"
   sodipodi:docname="Logo.svg"
   xmlns:inkscape="http://www.inkscape.org/namespaces/inkscape"
   xmlns:sodipodi="http://sodipodi.sourceforge.net/DTD/sodipodi-0.dtd"
   xmlns:xlink="http://www.w3.org/1999/xlink"
   xmlns="http://www.w3.org/2000/svg"
   xmlns:svg="http://www.w3.org/2000/svg"
   xmlns:rdf="http://www.w3.org/1999/02/22-rdf-syntax-ns#"
   xmlns:cc="http://creativecommons.org/ns#"
   xmlns:dc="http://purl.org/dc/elements/1.1/"><title
     id="title12559">Logo michzuerch.github.io</title><sodipodi:namedview
     id="namedview7"
     pagecolor="#ffffff"
     bordercolor="#000000"
     borderopacity="0.25"
     inkscape:showpageshadow="2"
     inkscape:pageopacity="0.0"
     inkscape:pagecheckerboard="0"
     inkscape:deskcolor="#d1d1d1"
     inkscape:document-units="mm"
     showgrid="false"
     inkscape:zoom="17.395833"
     inkscape:cx="23.798802"
     inkscape:cy="23.77006"
     inkscape:window-width="1908"
     inkscape:window-height="1044"
     inkscape:window-x="0"
     inkscape:window-y="0"
     inkscape:window-maximized="1"
     inkscape:current-layer="g861" /><defs
     id="defs2"><linearGradient
       inkscape:collect="always"
       id="linearGradient2634"><stop
         style="stop-color:#bdbdbd;stop-opacity:1;"
         offset="0"
         id="stop2630" /><stop
         style="stop-color:#181818;stop-opacity:0;"
         offset="1"
         id="stop2632" /></linearGradient><linearGradient
       inkscape:collect="always"
       xlink:href="#linearGradient2634"
       id="linearGradient2636"
       x1="64.576302"
       y1="28.016371"
       x2="181.15703"
       y2="188.56282"
       gradientUnits="userSpaceOnUse"
       gradientTransform="matrix(0.02173482,0,0,0.02429799,-18.621895,-16.111497)" /></defs><g
     inkscape:label="Layer 1"
     inkscape:groupmode="layer"
     id="layer1"
     transform="translate(-0.05201772,-0.06146074)"><g
       fill="currentColor"
       id="g861"
       transform="matrix(3.7156153,0,0,3.6144099,65.670059,55.075735)"><ellipse
         style="fill:url(#linearGradient2636);fill-opacity:1;stroke:#080707;stroke-width:0.114904;stroke-dasharray:none;stroke-opacity:1"
         id="path2627"
         cx="-15.974215"
         cy="-13.486217"
         rx="1.6284075"
         ry="1.6771492" /><path
         fill-rule="evenodd"
         d="m -15.204439,-14.493773 h -1.655457 a 0.2759094,0.31474824 0 0 0 -0.275909,0.314749 v 1.258992 a 0.2759094,0.31474824 0 0 0 0.275909,0.314748 h 1.655457 a 0.2759094,0.31474824 0 0 0 0.27591,-0.314748 v -1.258992 a 0.2759094,0.31474824 0 0 0 -0.27591,-0.314749 z m -1.710638,0.314749 a 0.05518188,0.06294965 0 0 1 0.05518,-0.06295 h 1.655457 a 0.05518188,0.06294965 0 0 1 0.05518,0.06295 v 1.258992 a 0.05518188,0.06294965 0 0 1 -0.05518,0.06295 h -1.655457 a 0.05518188,0.06294965 0 0 1 -0.05518,-0.06295 z"
         clip-rule="evenodd"
         id="path855"
         style="stroke-width:0.117876" /><path
         fill-rule="evenodd"
         d="m -15.854854,-12.794133 h -0.331092 a 0.11036376,0.1258993 0 0 0 -0.110364,0.1259 v 0.314749 a 0.11036376,0.1258993 0 0 0 0.110364,0.125898 h 0.331092 a 0.11036376,0.1258993 0 0 0 0.110364,-0.125898 v -0.314749 a 0.11036376,0.1258993 0 0 0 -0.110364,-0.1259 z m -0.275909,0.377699 v -0.18885 h 0.220726 v 0.18885 z"
         clip-rule="evenodd"
         id="path857"
         style="stroke-width:0.117876" /><path
         d="m -16.517037,-12.164636 a 0.11036376,0.1258993 0 1 1 0,-0.251798 h 0.993274 a 0.11036376,0.1258993 0 1 1 0,0.251798 z m -0.220727,-1.951438 h 1.434728 a 0.05518188,0.06294965 0 0 1 0.05518,0.06295 v 1.007195 a 0.05518188,0.06294965 0 0 1 -0.05518,0.06295 h -1.434728 a 0.05518188,0.06294965 0 0 1 -0.05518,-0.06295 v -1.007195 a 0.05518188,0.06294965 0 0 1 0.05518,-0.06295 z"
         id="path859"
         style="stroke-width:0.117876" /></g></g><metadata
     id="metadata12557"><rdf:RDF><cc:Work
         rdf:about=""><dc:title>Logo michzuerch.github.io</dc:title><dc:date>17.05.2023</dc:date><dc:creator><cc:Agent><dc:title>Michael Zuercher</dc:title></cc:Agent></dc:creator><cc:license
           rdf:resource="http://creativecommons.org/licenses/by/4.0/" /></cc:Work><cc:License
         rdf:about="http://creativecommons.org/licenses/by/4.0/"><cc:permits
           rdf:resource="http://creativecommons.org/ns#Reproduction" /><cc:permits
           rdf:resource="http://creativecommons.org/ns#Distribution" /><cc:requires
           rdf:resource="http://creativecommons.org/ns#Notice" /><cc:requires
           rdf:resource="http://creativecommons.org/ns#Attribution" /><cc:permits
           rdf:resource="http://creativecommons.org/ns#DerivativeWorks" /></cc:License></rdf:RDF></metadata></svg>
