<?xml version="1.0" standalone="no"?>
<!DOCTYPE svg PUBLIC "-//W3C//DTD SVG 20010904//EN"
 "http://www.w3.org/TR/2001/REC-SVG-20010904/DTD/svg10.dtd">
<svg version="1.0" xmlns="http://www.w3.org/2000/svg"
 width="672.000000pt" height="672.000000pt" viewBox="0 0 672.000000 672.000000"
 preserveAspectRatio="xMidYMid meet">
<metadata>
Created by potrace 1.11, written by Peter Selinger 2001-2013
</metadata>
<g transform="translate(0.000000,672.000000) scale(0.100000,-0.100000)"
fill="#000000" stroke="none">
<path d="M3119 6716 c-2 -2 -40 -6 -84 -10 -359 -30 -759 -138 -1100 -298
-132 -62 -342 -181 -445 -252 -119 -83 -185 -130 -190 -137 -3 -3 -31 -27 -63
-53 -33 -26 -70 -57 -85 -69 -46 -40 -246 -241 -299 -302 -78 -91 -86 -100
-113 -135 -14 -18 -32 -41 -40 -51 -115 -137 -326 -501 -417 -719 -35 -83 -93
-236 -99 -260 -2 -8 -15 -53 -30 -100 -14 -47 -27 -92 -29 -100 -2 -8 -11 -44
-20 -80 -9 -36 -19 -77 -21 -93 -2 -15 -5 -31 -8 -35 -2 -4 -7 -31 -11 -59 -3
-29 -10 -67 -15 -84 -9 -32 -8 -1005 2 -1044 2 -11 8 -42 12 -70 12 -76 13
-79 18 -95 5 -13 38 -156 44 -186 8 -44 85 -272 132 -389 59 -149 160 -353
242 -490 34 -57 169 -255 194 -286 12 -14 32 -40 46 -59 79 -105 255 -292 391
-415 37 -34 132 -114 189 -158 93 -73 291 -204 407 -268 83 -46 264 -135 293
-144 14 -4 30 -11 35 -15 9 -7 147 -61 170 -67 6 -1 44 -14 85 -28 119 -41
380 -106 480 -119 60 -8 114 -16 135 -21 128 -26 643 -27 806 0 13 2 44 6 69
9 61 8 101 15 180 32 14 2 36 7 50 9 71 12 396 107 425 124 6 3 15 6 20 7 21
4 262 109 311 136 28 15 54 25 58 21 3 -3 6 -1 6 5 0 6 16 16 35 23 19 7 35
17 35 21 0 4 5 8 11 8 25 0 348 212 423 278 15 12 31 22 36 22 6 0 10 4 10 8
0 4 23 26 52 47 49 38 297 280 364 355 48 54 177 220 215 275 19 28 37 52 40
55 5 4 24 34 74 118 63 105 101 174 145 262 29 58 59 117 67 132 8 16 11 28 6
28 -4 0 -3 4 2 8 14 9 107 250 130 332 2 8 14 51 27 95 14 44 25 82 25 85 1 3
6 23 11 45 6 22 13 54 15 70 3 17 10 53 16 80 14 67 21 113 26 155 2 19 7 55
11 80 4 25 8 62 8 82 1 21 4 38 7 38 7 0 4 537 -4 605 -10 96 -17 150 -22 175
-3 14 -7 41 -9 60 -6 50 -33 179 -61 290 -80 323 -223 657 -408 956 -56 90
-190 281 -211 299 -6 6 -26 30 -45 55 -51 66 -48 63 -203 220 -79 80 -167 166
-197 190 -29 25 -58 50 -65 55 -6 6 -40 33 -76 60 -36 27 -67 52 -70 55 -3 3
-12 10 -21 15 -9 6 -47 31 -85 56 -302 200 -606 341 -954 439 -36 10 -76 21
-90 24 -14 3 -66 14 -117 25 -102 23 -160 33 -273 46 -30 4 -68 9 -85 11 -35
5 -521 14 -526 10z"/>
</g>
</svg>
